<svg xmlns="http://www.w3.org/2000/svg" xmlns:xlink="http://www.w3.org/1999/xlink" width="77" zoomAndPan="magnify" viewBox="0 0 57.75 57.749997" height="77" preserveAspectRatio="xMidYMid meet" version="1.2"><defs><clipPath id="64996de665"><path d="M 0 0 L 57.5 0 L 57.5 57.5 L 0 57.5 Z M 0 0 "/></clipPath><clipPath id="b5dbcb44cf"><path d="M 0 0 L 57.351562 0 L 57.351562 57.351562 L 0 57.351562 Z M 0 0 "/></clipPath></defs><g id="4f72b117d5"><g clip-rule="nonzero" clip-path="url(#64996de665)"><path style=" stroke:none;fill-rule:nonzero;fill:#ffffff;fill-opacity:1;" d="M 0 0 L 57.5 0 L 57.5 57.5 L 0 57.5 Z M 0 0 "/></g><g clip-rule="nonzero" clip-path="url(#b5dbcb44cf)"><path style=" stroke:none;fill-rule:nonzero;fill:#ffffff;fill-opacity:1;" d="M 0 0 L 57.351562 0 L 57.351562 57.351562 L 0 57.351562 Z M 0 0 "/></g><path style="fill-rule:nonzero;fill:#ffffff;fill-opacity:1;stroke-width:1;stroke-linecap:butt;stroke-linejoin:miter;stroke:#000000;stroke-opacity:1;stroke-miterlimit:4;" d="M 2.000402 2.499381 L 8.999566 2.499381 M 10.999969 2.499381 L 12.00017 2.499381 M 13.000372 2.499381 L 15.000775 2.499381 M 16.998931 2.499381 L 23.00014 2.499381 M 24.000342 2.499381 L 30.999505 2.499381 M 2.000402 3.499582 L 3.000604 3.499582 M 7.999364 3.499582 L 8.999566 3.499582 M 12.00017 3.499582 L 13.000372 3.499582 M 14.000574 3.499582 L 15.000775 3.499582 M 18.999334 3.499582 L 19.999535 3.499582 M 21.999939 3.499582 L 23.00014 3.499582 M 24.000342 3.499582 L 25.000543 3.499582 M 29.999303 3.499582 L 30.999505 3.499582 M 2.000402 4.499784 L 3.000604 4.499784 M 4.000805 4.499784 L 6.999163 4.499784 M 7.999364 4.499784 L 8.999566 4.499784 M 9.999767 4.499784 L 14.000574 4.499784 M 16.000977 4.499784 L 16.998931 4.499784 M 17.999132 4.499784 L 18.999334 4.499784 M 20.999737 4.499784 L 21.999939 4.499784 M 24.000342 4.499784 L 25.000543 4.499784 M 26.000745 4.499784 L 28.999102 4.499784 M 29.999303 4.499784 L 30.999505 4.499784 M 2.000402 5.499985 L 3.000604 5.499985 M 4.000805 5.499985 L 6.999163 5.499985 M 7.999364 5.499985 L 8.999566 5.499985 M 9.999767 5.499985 L 12.00017 5.499985 M 13.000372 5.499985 L 15.000775 5.499985 M 17.999132 5.499985 L 19.999535 5.499985 M 24.000342 5.499985 L 25.000543 5.499985 M 26.000745 5.499985 L 28.999102 5.499985 M 29.999303 5.499985 L 30.999505 5.499985 M 2.000402 6.500187 L 3.000604 6.500187 M 4.000805 6.500187 L 6.999163 6.500187 M 7.999364 6.500187 L 8.999566 6.500187 M 9.999767 6.500187 L 10.999969 6.500187 M 12.00017 6.500187 L 14.000574 6.500187 M 15.000775 6.500187 L 17.999132 6.500187 M 18.999334 6.500187 L 23.00014 6.500187 M 24.000342 6.500187 L 25.000543 6.500187 M 26.000745 6.500187 L 28.999102 6.500187 M 29.999303 6.500187 L 30.999505 6.500187 M 2.000402 7.500389 L 3.000604 7.500389 M 7.999364 7.500389 L 8.999566 7.500389 M 9.999767 7.500389 L 14.000574 7.500389 M 15.000775 7.500389 L 18.999334 7.500389 M 24.000342 7.500389 L 25.000543 7.500389 M 29.999303 7.500389 L 30.999505 7.500389 M 2.000402 8.50059 L 8.999566 8.50059 M 9.999767 8.50059 L 10.999969 8.50059 M 12.00017 8.50059 L 13.000372 8.50059 M 14.000574 8.50059 L 15.000775 8.50059 M 16.000977 8.50059 L 16.998931 8.50059 M 17.999132 8.50059 L 18.999334 8.50059 M 19.999535 8.50059 L 20.999737 8.50059 M 21.999939 8.50059 L 23.00014 8.50059 M 24.000342 8.50059 L 30.999505 8.50059 M 9.999767 9.500792 L 10.999969 9.500792 M 13.000372 9.500792 L 14.000574 9.500792 M 15.000775 9.500792 L 16.000977 9.500792 M 16.998931 9.500792 L 17.999132 9.500792 M 20.999737 9.500792 L 23.00014 9.500792 M 2.000402 10.500993 L 3.000604 10.500993 M 4.000805 10.500993 L 8.999566 10.500993 M 13.000372 10.500993 L 15.000775 10.500993 M 16.000977 10.500993 L 17.999132 10.500993 M 18.999334 10.500993 L 21.999939 10.500993 M 24.000342 10.500993 L 28.999102 10.500993 M 3.000604 11.498947 L 5.998961 11.498947 M 10.999969 11.498947 L 12.00017 11.498947 M 14.000574 11.498947 L 15.000775 11.498947 M 16.998931 11.498947 L 21.999939 11.498947 M 24.000342 11.498947 L 27.000946 11.498947 M 29.999303 11.498947 L 30.999505 11.498947 M 2.000402 12.499149 L 5.998961 12.499149 M 7.999364 12.499149 L 10.999969 12.499149 M 13.000372 12.499149 L 14.000574 12.499149 M 18.999334 12.499149 L 19.999535 12.499149 M 21.999939 12.499149 L 24.000342 12.499149 M 25.000543 12.499149 L 27.000946 12.499149 M 2.000402 13.49935 L 4.000805 13.49935 M 5.001007 13.49935 L 5.998961 13.49935 M 6.999163 13.49935 L 7.999364 13.49935 M 8.999566 13.49935 L 10.999969 13.49935 M 16.000977 13.49935 L 16.998931 13.49935 M 17.999132 13.49935 L 18.999334 13.49935 M 20.999737 13.49935 L 21.999939 13.49935 M 23.00014 13.49935 L 27.9989 13.49935 M 28.999102 13.49935 L 29.999303 13.49935 M 2.000402 14.499552 L 8.999566 14.499552 M 10.999969 14.499552 L 12.00017 14.499552 M 13.000372 14.499552 L 15.000775 14.499552 M 17.999132 14.499552 L 19.999535 14.499552 M 27.000946 14.499552 L 28.999102 14.499552 M 8.999566 15.499754 L 10.999969 15.499754 M 12.00017 15.499754 L 13.000372 15.499754 M 15.000775 15.499754 L 17.999132 15.499754 M 20.999737 15.499754 L 27.000946 15.499754 M 29.999303 15.499754 L 30.999505 15.499754 M 2.000402 16.499955 L 6.999163 16.499955 M 7.999364 16.499955 L 8.999566 16.499955 M 9.999767 16.499955 L 12.00017 16.499955 M 13.000372 16.499955 L 14.000574 16.499955 M 15.000775 16.499955 L 18.999334 16.499955 M 19.999535 16.499955 L 20.999737 16.499955 M 21.999939 16.499955 L 23.00014 16.499955 M 24.000342 16.499955 L 25.000543 16.499955 M 27.000946 16.499955 L 28.999102 16.499955 M 2.000402 17.500157 L 5.001007 17.500157 M 5.998961 17.500157 L 7.999364 17.500157 M 10.999969 17.500157 L 16.000977 17.500157 M 16.998931 17.500157 L 17.999132 17.500157 M 21.999939 17.500157 L 23.00014 17.500157 M 25.000543 17.500157 L 27.000946 17.500157 M 28.999102 17.500157 L 29.999303 17.500157 M 2.000402 18.500358 L 4.000805 18.500358 M 5.001007 18.500358 L 5.998961 18.500358 M 6.999163 18.500358 L 8.999566 18.500358 M 16.000977 18.500358 L 17.999132 18.500358 M 18.999334 18.500358 L 19.999535 18.500358 M 20.999737 18.500358 L 21.999939 18.500358 M 27.000946 18.500358 L 28.999102 18.500358 M 2.000402 19.50056 L 5.998961 19.50056 M 6.999163 19.50056 L 7.999364 19.50056 M 9.999767 19.50056 L 10.999969 19.50056 M 12.00017 19.50056 L 14.000574 19.50056 M 16.998931 19.50056 L 18.999334 19.50056 M 20.999737 19.50056 L 27.000946 19.50056 M 27.9989 19.50056 L 28.999102 19.50056 M 29.999303 19.50056 L 30.999505 19.50056 M 2.000402 20.500761 L 3.000604 20.500761 M 7.999364 20.500761 L 9.999767 20.500761 M 13.000372 20.500761 L 15.000775 20.500761 M 18.999334 20.500761 L 20.999737 20.500761 M 21.999939 20.500761 L 23.00014 20.500761 M 27.9989 20.500761 L 28.999102 20.500761 M 2.000402 21.500963 L 3.000604 21.500963 M 4.000805 21.500963 L 5.001007 21.500963 M 6.999163 21.500963 L 7.999364 21.500963 M 8.999566 21.500963 L 15.000775 21.500963 M 16.000977 21.500963 L 16.998931 21.500963 M 17.999132 21.500963 L 18.999334 21.500963 M 19.999535 21.500963 L 20.999737 21.500963 M 25.000543 21.500963 L 26.000745 21.500963 M 28.999102 21.500963 L 29.999303 21.500963 M 2.000402 22.498917 L 3.000604 22.498917 M 4.000805 22.498917 L 5.998961 22.498917 M 6.999163 22.498917 L 9.999767 22.498917 M 12.00017 22.498917 L 14.000574 22.498917 M 17.999132 22.498917 L 18.999334 22.498917 M 19.999535 22.498917 L 20.999737 22.498917 M 21.999939 22.498917 L 27.000946 22.498917 M 27.9989 22.498917 L 30.999505 22.498917 M 9.999767 23.499118 L 10.999969 23.499118 M 12.00017 23.499118 L 13.000372 23.499118 M 14.000574 23.499118 L 17.999132 23.499118 M 18.999334 23.499118 L 20.999737 23.499118 M 21.999939 23.499118 L 23.00014 23.499118 M 26.000745 23.499118 L 30.999505 23.499118 M 2.000402 24.49932 L 8.999566 24.49932 M 10.999969 24.49932 L 12.00017 24.49932 M 13.000372 24.49932 L 19.999535 24.49932 M 20.999737 24.49932 L 23.00014 24.49932 M 24.000342 24.49932 L 25.000543 24.49932 M 26.000745 24.49932 L 28.999102 24.49932 M 2.000402 25.499522 L 3.000604 25.499522 M 7.999364 25.499522 L 8.999566 25.499522 M 9.999767 25.499522 L 12.00017 25.499522 M 15.000775 25.499522 L 16.000977 25.499522 M 16.998931 25.499522 L 17.999132 25.499522 M 18.999334 25.499522 L 23.00014 25.499522 M 26.000745 25.499522 L 27.000946 25.499522 M 29.999303 25.499522 L 30.999505 25.499522 M 2.000402 26.499723 L 3.000604 26.499723 M 4.000805 26.499723 L 6.999163 26.499723 M 7.999364 26.499723 L 8.999566 26.499723 M 9.999767 26.499723 L 10.999969 26.499723 M 12.00017 26.499723 L 15.000775 26.499723 M 16.000977 26.499723 L 17.999132 26.499723 M 21.999939 26.499723 L 27.000946 26.499723 M 27.9989 26.499723 L 30.999505 26.499723 M 2.000402 27.499925 L 3.000604 27.499925 M 4.000805 27.499925 L 6.999163 27.499925 M 7.999364 27.499925 L 8.999566 27.499925 M 9.999767 27.499925 L 10.999969 27.499925 M 12.00017 27.499925 L 14.000574 27.499925 M 15.000775 27.499925 L 16.000977 27.499925 M 16.998931 27.499925 L 18.999334 27.499925 M 19.999535 27.499925 L 21.999939 27.499925 M 27.000946 27.499925 L 28.999102 27.499925 M 2.000402 28.500126 L 3.000604 28.500126 M 4.000805 28.500126 L 6.999163 28.500126 M 7.999364 28.500126 L 8.999566 28.500126 M 9.999767 28.500126 L 10.999969 28.500126 M 13.000372 28.500126 L 16.998931 28.500126 M 19.999535 28.500126 L 20.999737 28.500126 M 21.999939 28.500126 L 23.00014 28.500126 M 24.000342 28.500126 L 29.999303 28.500126 M 2.000402 29.500328 L 3.000604 29.500328 M 7.999364 29.500328 L 8.999566 29.500328 M 13.000372 29.500328 L 14.000574 29.500328 M 17.999132 29.500328 L 18.999334 29.500328 M 21.999939 29.500328 L 24.000342 29.500328 M 25.000543 29.500328 L 27.9989 29.500328 M 28.999102 29.500328 L 29.999303 29.500328 M 2.000402 30.50053 L 8.999566 30.50053 M 9.999767 30.50053 L 14.000574 30.50053 M 15.000775 30.50053 L 16.998931 30.50053 M 17.999132 30.50053 L 18.999334 30.50053 M 19.999535 30.50053 L 21.999939 30.50053 M 23.00014 30.50053 L 27.000946 30.50053 M 27.9989 30.50053 L 28.999102 30.50053 " transform="matrix(1.737931,0,0,1.737931,0.0000015,-0.00000099569)"/></g></svg>